<?xml version="1.0" standalone="no"?>
<!DOCTYPE svg PUBLIC "-//W3C//DTD SVG 20010904//EN"
 "http://www.w3.org/TR/2001/REC-SVG-20010904/DTD/svg10.dtd">
<svg version="1.0" xmlns="http://www.w3.org/2000/svg"
 width="205.000000pt" height="205.000000pt" viewBox="0 0 205.000000 205.000000"
 preserveAspectRatio="xMidYMid meet">

<g transform="translate(0.000000,205.000000) scale(0.100000,-0.100000)"
fill="#000000" stroke="none">
<path d="M0 1025 l0 -1025 1025 0 1025 0 0 1025 0 1025 -1025 0 -1025 0 0
-1025z m1400 608 c125 -59 198 -151 226 -284 54 -257 -164 -500 -426 -475
-124 11 -257 102 -313 212 -22 45 -47 133 -47 169 0 22 226 21 310 -1 58 -15
62 -15 76 3 17 22 17 29 3 95 -21 97 -76 184 -152 239 l-38 28 23 12 c53 29
106 39 188 36 71 -2 96 -8 150 -34z m-805 -845 c50 -44 49 -127 -1 -167 -22
-17 -41 -21 -105 -21 -64 0 -79 3 -79 15 0 8 5 15 10 15 6 0 10 32 10 75 0 43
-4 75 -10 75 -5 0 -10 7 -10 15 0 12 15 15 79 15 69 0 84 -3 106 -22z m595
-13 c0 -8 9 -15 20 -15 11 0 20 -7 20 -15 0 -8 -9 -15 -20 -15 -17 0 -20 -7
-20 -50 0 -46 13 -67 22 -38 2 6 10 8 16 4 9 -5 9 -13 2 -26 -14 -27 -47 -34
-74 -16 -20 13 -24 25 -28 83 -4 59 -2 70 16 85 26 22 46 23 46 3z m-365 -40
c14 -13 25 -36 25 -50 0 -24 -3 -25 -56 -25 -40 0 -55 -3 -52 -12 7 -19 37
-22 64 -7 27 14 37 9 29 -13 -7 -18 -47 -38 -75 -38 -35 0 -74 44 -74 83 0 77
86 116 139 62z m131 14 c4 -8 9 -8 17 0 15 15 60 14 75 -1 7 -7 12 -36 12 -65
0 -29 5 -53 10 -53 6 0 10 -7 10 -15 0 -11 -12 -15 -45 -15 -42 0 -58 11 -35
25 12 7 14 92 2 99 -4 2 -14 1 -21 -4 -10 -6 -12 -23 -8 -64 l6 -56 -37 0 -37
0 0 80 c0 76 1 80 22 80 12 0 25 -5 29 -11z m473 -7 c11 -20 -4 -52 -24 -52
-8 0 -19 8 -24 18 -9 15 -12 15 -21 2 -5 -8 -10 -30 -10 -47 0 -26 4 -33 20
-33 11 0 20 -7 20 -15 0 -12 -13 -15 -55 -15 -51 0 -69 10 -45 25 14 9 13 102
-2 107 -31 11 9 26 67 26 50 0 68 -4 74 -16z m186 -7 c41 -40 33 -105 -17
-131 -59 -30 -122 7 -122 73 0 72 89 109 139 58z m-1045 -269 c-19 -19 -22
-20 -48 -6 -52 30 -30 96 30 88 24 -4 28 -1 30 21 1 14 3 2 5 -28 4 -45 0 -58
-17 -75z m247 17 c-2 -21 -4 -6 -4 32 0 39 2 55 4 38 2 -18 2 -50 0 -70z m593
78 c0 -11 6 -22 13 -25 10 -5 10 -7 0 -12 -7 -3 -13 -16 -13 -29 0 -13 6 -25
13 -28 6 -2 9 -8 5 -12 -4 -4 -14 -2 -23 5 -17 14 -22 120 -5 120 6 0 10 -9
10 -19z m-712 -23 c23 -23 13 -38 -23 -38 -24 0 -35 -5 -35 -15 0 -18 41 -20
58 -3 9 9 12 9 12 0 0 -12 -31 -32 -49 -32 -16 0 -41 30 -41 50 0 39 52 64 78
38z m240 0 c7 -7 12 -28 12 -48 0 -33 -2 -36 -27 -34 -48 2 -52 3 -63 25 -24
43 43 92 78 57z m128 -20 l17 -32 18 35 c10 19 18 29 19 22 0 -16 -32 -83 -40
-83 -3 0 -12 17 -20 38 -8 20 -16 40 -18 45 -2 4 -1 7 2 7 3 0 13 -14 22 -32z
m162 20 c23 -23 13 -38 -23 -38 -24 0 -35 -5 -35 -15 0 -18 41 -20 58 -3 9 9
12 9 12 0 0 -12 -31 -32 -49 -32 -16 0 -41 30 -41 50 0 39 52 64 78 38z m120
0 c15 -15 16 -92 2 -83 -5 3 -10 22 -10 41 0 27 -4 34 -20 34 -12 0 -21 -8
-24 -22 -3 -13 -7 -32 -9 -43 -3 -11 -5 -2 -6 21 -1 42 12 64 39 64 9 0 21 -5
28 -12z m196 -7 c10 -11 16 -31 14 -47 -2 -22 -9 -27 -33 -30 -32 -3 -65 19
-65 44 0 21 30 52 50 52 9 0 25 -9 34 -19z"/>
<path d="M490 705 c0 -73 1 -75 24 -75 14 0 32 10 40 22 34 48 9 128 -40 128
-23 0 -24 -2 -24 -75z"/>
<path d="M747 715 c-5 -11 0 -15 19 -15 16 0 24 5 22 13 -7 18 -35 20 -41 2z"/>
<path d="M1541 716 c-7 -8 -11 -30 -9 -48 2 -25 8 -34 25 -36 28 -4 41 37 24
74 -12 27 -23 30 -40 10z"/>
<path d="M520 525 c-17 -21 -8 -50 17 -53 30 -4 49 31 27 52 -19 20 -28 20
-44 1z"/>
<path d="M640 520 c0 -5 14 -10 31 -10 17 0 28 4 24 10 -3 6 -17 10 -31 10
-13 0 -24 -4 -24 -10z"/>
<path d="M880 525 c-17 -21 -8 -50 17 -53 30 -4 49 31 27 52 -19 20 -28 20
-44 1z"/>
<path d="M1170 520 c0 -5 14 -10 31 -10 17 0 28 4 24 10 -3 6 -17 10 -31 10
-13 0 -24 -4 -24 -10z"/>
<path d="M1484 516 c-10 -26 4 -48 28 -44 17 2 23 10 23 28 0 18 -6 26 -23 28
-13 2 -25 -3 -28 -12z"/>
</g>
</svg>
